<svg width="27" height="28" viewBox="0 0 27 28" fill="none" xmlns="http://www.w3.org/2000/svg">
<path d="M15.75 7.8125C15.75 5.69118 15.75 4.63052 16.409 3.97151C17.068 3.3125 18.1287 3.3125 20.25 3.3125C22.3713 3.3125 23.432 3.3125 24.091 3.97151C24.75 4.63052 24.75 5.69118 24.75 7.8125V20.1875C24.75 22.3088 24.75 23.3695 24.091 24.0285C23.432 24.6875 22.3713 24.6875 20.25 24.6875C18.1287 24.6875 17.068 24.6875 16.409 24.0285C15.75 23.3695 15.75 22.3088 15.75 20.1875V7.8125Z"  stroke-width="1.5"/>
<path opacity="0.5" d="M2.8125 7.8125C2.8125 5.69118 2.8125 4.63052 3.47151 3.97151C4.13052 3.3125 5.19118 3.3125 7.3125 3.3125C9.43382 3.3125 10.4945 3.3125 11.1535 3.97151C11.8125 4.63052 11.8125 5.69118 11.8125 7.8125V20.1875C11.8125 22.3088 11.8125 23.3695 11.1535 24.0285C10.4945 24.6875 9.43382 24.6875 7.3125 24.6875C5.19118 24.6875 4.13052 24.6875 3.47151 24.0285C2.8125 23.3695 2.8125 22.3088 2.8125 20.1875V7.8125Z"  stroke-width="1.5"/>
</svg>
