<svg width="27" height="28" viewBox="0 0 27 28" fill="none" xmlns="http://www.w3.org/2000/svg">
<path d="M2.8125 18.1447C2.8125 17.2515 2.8125 16.805 4.37765 16.5275C5.9428 16.25 8.46186 16.25 13.5 16.25C18.5381 16.25 21.0572 16.25 22.6224 16.5275C24.1875 16.805 24.1875 17.2515 24.1875 18.1447V23.3553C24.1875 24.2485 24.1875 24.695 22.6224 24.9725C21.0572 25.25 18.5381 25.25 13.5 25.25C8.46186 25.25 5.9428 25.25 4.37765 24.9725C2.8125 24.695 2.8125 24.2485 2.8125 23.3553V18.1447Z"  stroke-width="1.5"/>
<path opacity="0.5" d="M2.8125 5.20724C2.8125 4.31405 2.8125 3.86746 4.37765 3.58998C5.9428 3.3125 8.46186 3.3125 13.5 3.3125C18.5381 3.3125 21.0572 3.3125 22.6224 3.58998C24.1875 3.86746 24.1875 4.31405 24.1875 5.20724V10.4178C24.1875 11.311 24.1875 11.7575 22.6224 12.035C21.0572 12.3125 18.5381 12.3125 13.5 12.3125C8.46186 12.3125 5.9428 12.3125 4.37765 12.035C2.8125 11.7575 2.8125 11.311 2.8125 10.4178V5.20724Z"  stroke-width="1.5"/>
</svg>
