<svg width="44" height="44" fill="none" xmlns="http://www.w3.org/2000/svg" class="socialLinks_icon__KQid8" role="img" aria-label="Дзен"><path d="M0 22C0 9.85 9.85 0 22 0s22 9.85 22 22-9.85 22-22 22S0 34.15 0 22Z" fill="#241F20"></path><path fill-rule="evenodd" clip-rule="evenodd" d="M21.555 0c-.104 9.051-.696 14.116-4.067 17.488C14.116 20.859 9.05 21.45 0 21.555v1.313c9.051.104 14.116.696 17.488 4.067 3.318 3.319 3.944 8.279 4.061 17.065h1.325c.117-8.786.743-13.746 4.061-17.065 3.319-3.318 8.279-3.944 17.065-4.061v-1.325c-8.786-.117-13.746-.743-17.065-4.061C23.564 14.116 22.972 9.05 22.868 0h-1.313Z" fill="#fff"></path></svg>